<?xml version="1.0" encoding="UTF-8" standalone="no"?>
<svg
   xmlns:dc="http://purl.org/dc/elements/1.1/"
   xmlns:cc="http://creativecommons.org/ns#"
   xmlns:rdf="http://www.w3.org/1999/02/22-rdf-syntax-ns#"
   xmlns:svg="http://www.w3.org/2000/svg"
   xmlns="http://www.w3.org/2000/svg"
   xmlns:sodipodi="http://sodipodi.sourceforge.net/DTD/sodipodi-0.dtd"
   xmlns:inkscape="http://www.inkscape.org/namespaces/inkscape"
   version="1.1"
   id="Calque_1"
   x="0px"
   y="0px"
   width="100px"
   height="100px"
   viewBox="0 0 100 100"
   enable-background="new 0 0 100 100"
   xml:space="preserve"
   inkscape:version="0.48.1 "
   sodipodi:docname="noun_project_1566.svg"><metadata
   id="metadata21"><rdf:RDF><cc:Work
       rdf:about=""><dc:format>image/svg+xml</dc:format><dc:type
         rdf:resource="http://purl.org/dc/dcmitype/StillImage" /><dc:title></dc:title></cc:Work></rdf:RDF></metadata><defs
   id="defs19" /><sodipodi:namedview
   pagecolor="#ffffff"
   bordercolor="#666666"
   borderopacity="1"
   objecttolerance="10"
   gridtolerance="10"
   guidetolerance="10"
   inkscape:pageopacity="0"
   inkscape:pageshadow="2"
   inkscape:window-width="640"
   inkscape:window-height="480"
   id="namedview17"
   showgrid="false"
   inkscape:zoom="2.0576807"
   inkscape:cx="50"
   inkscape:cy="50"
   inkscape:window-x="0"
   inkscape:window-y="0"
   inkscape:window-maximized="0"
   inkscape:current-layer="Calque_1" />
<g
   id="g3"
   style="stroke:none;fill:#ffffff">
	<path
   d="M76.807,73.834c-6.369,0-12.141,2.572-16.33,6.735c4.469,2.974,6.594,8.539,5.17,16.431h34.328   C99.975,84.205,89.602,73.834,76.807,73.834z"
   id="path5"
   style="stroke:none;fill:#ffffff" />
	<path
   d="M51.088,82.439C43.046,82.439,36.53,88.96,36.53,97h29.116C65.646,88.96,59.126,82.439,51.088,82.439z"
   id="path7"
   style="stroke:none;fill:#ffffff" />
</g>
<polygon
   points="86.682,8.988 86.682,3.25 67.216,3.25 67.216,8.988 54.658,8.988 54.675,11.671 54.671,11.671 54.671,50.426   60.847,56.482 60.847,15.357 67.496,15.357 67.496,67.202 73.672,67.202 73.672,15.357 80.333,15.357 80.333,67.202 86.509,67.202   86.509,15.357 93.605,15.357 93.605,71.563 99.975,77.113 99.975,8.988 "
   id="polygon9"
   style="stroke:none;fill:#ffffff" />
<g
   id="g11"
   style="stroke:none;fill:#ffffff">
	<path
   d="M51.084,56.997H21.633L18.368,97h11.793c0-11.539,9.388-20.925,20.927-20.925c1.51,0,2.98,0.167,4.4,0.473l0.503-0.497   c1.522-1.512,3.187-2.818,4.95-3.945v-4.903L51.084,56.997z"
   id="path13"
   style="stroke:none;fill:#ffffff" />
	<path
   d="M0,41.467V97h17.96h0.353V41.467L9.079,18.91L0,41.467z M13.874,50.455c0,2.547-2.064,4.615-4.619,4.615   c-2.55,0-4.615-2.068-4.615-4.615c0-2.55,2.064-4.614,4.615-4.614C11.81,45.841,13.874,47.905,13.874,50.455z"
   id="path15"
   style="stroke:none;fill:#ffffff" />
</g>
</svg>